<?xml version="1.0" encoding="utf-8"?>
<!-- Generator: Adobe Illustrator 25.2.1, SVG Export Plug-In . SVG Version: 6.00 Build 0)  -->
<svg version="1.1" id="Layer_1" xmlns="http://www.w3.org/2000/svg" xmlns:xlink="http://www.w3.org/1999/xlink" x="0px" y="0px"
	 viewBox="0 0 425.2 425.2" style="enable-background:new 0 0 425.2 425.2;" xml:space="preserve">
<style type="text/css">
	.st0{fill:#234CE4;}
	.st1{fill:#1D1D1B;}
</style>
<g>
	<path class="st0" d="M140.44,82.79c-18.23,0-33,14.78-33,33v79.14h33V82.79z"/>
	<polygon class="st0" points="255.61,82.79 255.61,82.79 222.61,82.79 222.61,82.79 160.46,82.79 160.46,115.79 222.61,115.79 
		222.61,194.93 255.61,194.93 255.61,115.79 317.76,115.79 317.76,82.79 	"/>
	<path class="st0" d="M154.51,226.57h-3.67v0.19c-24.24,1.88-43.4,22.17-43.4,46.88v3.67h28.99v-3.67c0-9.97,8.11-18.08,18.08-18.08
		c9.97,0,18.08,8.11,18.08,18.08c0,9.97-8.11,18.08-18.08,18.08l-3.67,0.14c-24.24,1.88-43.4,22.17-43.4,46.88v3.67h28.99v-3.67
		c0-9.81,7.87-17.78,17.62-18.03h0.46c24.71,0,45-19.16,46.88-43.4h0.19v-3.67C201.57,247.69,180.46,226.57,154.51,226.57z"/>
	<path class="st0" d="M288.77,230.27v33c0,9.97-8.11,18.08-18.08,18.08c-9.97,0-18.08-8.11-18.08-18.08v-33h-28.99v33
		c0,25.96,21.11,47.07,47.07,47.07c6.42,0,12.54-1.3,18.12-3.64v35.7h28.95v-79.14v-33h-28.95H288.77z"/>
</g>
</svg>
