<?xml version="1.0" encoding="utf-8"?>
<!-- Generator: Adobe Illustrator 25.2.1, SVG Export Plug-In . SVG Version: 6.00 Build 0)  -->
<svg version="1.1" id="Layer_1" xmlns="http://www.w3.org/2000/svg" xmlns:xlink="http://www.w3.org/1999/xlink" x="0px" y="0px"
	 viewBox="0 0 640.9 425.2" style="enable-background:new 0 0 640.9 425.2;" xml:space="preserve">
<style type="text/css">
	.st0{fill:#234CE4;}
	.st1{fill:#1D1D1B;}
</style>
<g>
	<path class="st0" d="M144.43,256.96c-2.94-1.71-6.29-2.57-10.05-2.57h-25.84v59.89h14.54v-20.02h11.3c3.76,0,7.11-0.88,10.05-2.65
		c2.94-1.77,5.28-4.18,7.02-7.23c1.74-3.05,2.61-6.52,2.61-10.39c0-3.71-0.87-7.04-2.61-10.01
		C149.7,261.01,147.37,258.67,144.43,256.96z M138.23,278c-0.63,1.08-1.46,1.94-2.48,2.57c-1.03,0.63-2.17,0.94-3.42,0.94h-9.5
		v-14.29h9.5c1.25,0,2.4,0.29,3.42,0.86c1.03,0.57,1.85,1.37,2.48,2.39c0.63,1.03,0.94,2.28,0.94,3.76
		C139.17,275.66,138.85,276.92,138.23,278z"/>
	<path class="st0" d="M179.98,254.39l-23.7,59.89h14.37l4.27-11.46h21.92l4.26,11.46h14.71l-23.53-59.89H179.98z M179.01,291.86
		l2.93-7.87c0.46-1.42,0.94-2.81,1.46-4.15c0.51-1.34,0.98-2.68,1.41-4.02c0.38-1.19,0.76-2.41,1.14-3.62
		c0.37,1.19,0.74,2.39,1.12,3.62c0.45,1.45,0.91,2.86,1.37,4.23c0.46,1.37,0.91,2.65,1.37,3.85l2.96,7.96H179.01z"/>
	<path class="st0" d="M281.44,283.22c-0.06-1.08-0.14-1.94-0.26-2.57h-28.15v11.38h14.55c-0.09,1.28-0.37,2.5-0.95,3.64
		c-0.69,1.34-1.6,2.5-2.74,3.47c-1.14,0.97-2.5,1.74-4.06,2.31c-1.57,0.57-3.24,0.85-5,0.85c-2.51,0-4.86-0.47-7.06-1.41
		c-2.2-0.94-4.09-2.22-5.69-3.85c-1.6-1.63-2.85-3.55-3.76-5.77c-0.91-2.22-1.37-4.62-1.37-7.19c0-2.57,0.43-4.95,1.28-7.14
		c0.86-2.19,2.07-4.11,3.64-5.73c1.57-1.62,3.39-2.89,5.48-3.81c2.08-0.91,4.38-1.37,6.89-1.37c1.94,0,3.76,0.27,5.48,0.81
		c1.71,0.54,3.32,1.27,4.83,2.18c1.51,0.91,2.98,2.05,4.41,3.42l8.81-9.32c-1.65-1.94-3.68-3.65-6.07-5.13
		c-2.4-1.48-5.06-2.65-8-3.51c-2.94-0.85-6.06-1.28-9.37-1.28c-4.68,0-9,0.77-12.96,2.31c-3.96,1.54-7.4,3.71-10.31,6.5
		c-2.91,2.8-5.15,6.06-6.72,9.8c-1.57,3.74-2.35,7.83-2.35,12.28c0,4.45,0.74,8.57,2.22,12.36c1.48,3.79,3.62,7.09,6.42,9.88
		c2.8,2.8,6.13,4.96,10.01,6.5c3.88,1.54,8.21,2.31,13.01,2.31c3.99,0,7.7-0.66,11.12-1.97c3.42-1.31,6.39-3.14,8.9-5.48
		c2.51-2.34,4.46-5.12,5.86-8.34c1.4-3.22,2.1-6.77,2.1-10.65c0-0.51-0.02-1.28-0.04-2.31C281.54,285.36,281.5,284.31,281.44,283.22
		z"/>
	<path class="st0" d="M312.24,254.39l-23.7,59.89h14.37l4.27-11.46h21.92l4.26,11.46h14.71l-23.53-59.89H312.24z M311.27,291.86
		l2.93-7.87c0.46-1.42,0.94-2.81,1.46-4.15c0.51-1.34,0.98-2.68,1.41-4.02c0.38-1.19,0.76-2.41,1.14-3.62
		c0.37,1.19,0.74,2.39,1.12,3.62c0.45,1.45,0.91,2.86,1.37,4.23c0.46,1.37,0.91,2.65,1.37,3.85l2.96,7.96H311.27z"/>
	<polygon class="st0" points="374.35,254.39 359.81,254.39 359.81,314.28 401.04,314.28 401.04,301.44 374.35,301.44 	"/>
	<path class="st0" d="M458.66,283.82c-1.3-0.94-2.8-1.62-4.4-2.19c2.04-0.89,3.68-2.17,4.91-3.89c1.68-2.34,2.52-5.22,2.52-8.64
		c0-3.08-0.73-5.72-2.18-7.91c-1.45-2.2-3.61-3.88-6.46-5.05c-2.85-1.17-6.33-1.75-10.44-1.75h-26.43v59.89h27.29
		c3.14,0,6-0.37,8.6-1.11c2.6-0.74,4.86-1.88,6.8-3.42c1.94-1.54,3.42-3.43,4.45-5.69c1.03-2.25,1.54-4.89,1.54-7.91
		c0-2.62-0.54-4.98-1.62-7.06C462.15,287,460.63,285.25,458.66,283.82z M429.87,266.54h10.18c2.51,0,4.39,0.53,5.65,1.58
		c1.25,1.06,1.88,2.5,1.88,4.32c0,1.26-0.27,2.32-0.81,3.21c-0.54,0.88-1.34,1.57-2.4,2.05c-1.06,0.49-2.32,0.73-3.81,0.73h-10.69
		V266.54z M449.63,299.09c-0.63,1-1.5,1.75-2.61,2.27c-1.11,0.51-2.47,0.77-4.06,0.77h-13.09V289.3h12.66
		c1.66,0,3.08,0.24,4.28,0.73c1.2,0.49,2.13,1.18,2.78,2.1c0.65,0.91,0.98,2.02,0.98,3.34
		C450.58,296.88,450.26,298.09,449.63,299.09z"/>
	<path class="st0" d="M496.52,254.39l-23.7,59.89h14.37l4.27-11.46h21.92l4.26,11.46h14.71l-23.53-59.89H496.52z M495.55,291.86
		l2.93-7.87c0.46-1.42,0.94-2.81,1.46-4.15c0.51-1.34,0.98-2.68,1.41-4.02c0.38-1.19,0.76-2.41,1.14-3.62
		c0.37,1.19,0.74,2.39,1.12,3.62c0.45,1.45,0.91,2.86,1.37,4.23c0.46,1.37,0.91,2.65,1.37,3.85l2.96,7.96H495.55z"/>
	<path class="st1" d="M140.22,113.61c-17.49,0-31.68,14.18-31.68,31.68v75.95h31.68V113.61z"/>
	<polygon class="st1" points="250.75,221.24 250.75,145.29 310.41,145.29 310.41,113.61 250.75,113.61 219.08,113.61 219.08,113.61 
		159.43,113.61 159.43,145.29 219.08,145.29 219.08,221.24 	"/>
	<path class="st1" d="M420.85,158.76v-3.52c0-24.91-20.27-45.17-45.17-45.17h-3.52v0.18c-23.27,1.81-41.66,21.27-41.66,45v3.52
		h27.83v-3.52c0-9.57,7.79-17.35,17.35-17.35c9.57,0,17.35,7.78,17.35,17.35s-7.78,17.35-17.35,17.35l-3.52,0.14
		c-23.27,1.81-41.66,21.27-41.66,45v3.52h27.83v-3.52c0-9.41,7.55-17.06,16.91-17.31h0.44c23.72,0,43.19-18.39,45-41.66H420.85z"/>
	<path class="st1" d="M504.58,113.61h-0.04v31.68c0,9.57-7.78,17.35-17.35,17.35c-9.57,0-17.35-7.79-17.35-17.35v-31.68h-27.82
		v31.68c0,24.91,20.27,45.18,45.17,45.18c6.16,0,12.04-1.25,17.4-3.49v34.27h27.78v-75.95v-31.68H504.58z"/>
</g>
</svg>
